# xmcd
#
# Track frame offsets:
# 150
# 9506
# 19191
# 27353
# 36735
# 47161
# 56300
# 66341
# 75081
# 83701
# 96007
# 107089
# 115794
# 126592
# 136522
# 148027
# 158115
# 171009
# 179781
# 191630
#
# Disc length: 2681 seconds
#
#
# Revision: 0
# Processed by: cddbd v1.5.1PL0 Copyright (c) Steve Scherf et al.
# Submitted via: FreeRIP 2.70 
#
DISCID=0d0a7714
DTITLE=The Brick Lane Boogie Boys - Hillbilly Boogie
DYEAR=2002
DGENRE=Blues
TTITLE0=I'm coming home
TTITLE1=It's me baby
TTITLE2=Boppin' guitar
TTITLE3=I hear the choo choo comin'
TTITLE4=So long i'm gone
TTITLE5=Hillbilly Boogie
TTITLE6=Cry cry cry
TTITLE7=Think it over
TTITLE8=One woman man
TTITLE9=Matchbox
TTITLE10=Mama
TTITLE11=That ain't nuthin' but right
TTITLE12=Big John Boogie
TTITLE13=Honky tonk blues
TTITLE14=So doggone lonesome
TTITLE15=Blue moon of Kentucky
TTITLE16=I forgot to remember
TTITLE17=Midnight shift
TTITLE18=Your right I'm left she's gone
TTITLE19=Barrell house blues
EXTD=
EXTT0=
EXTT1=
EXTT2=
EXTT3=
EXTT4=
EXTT5=
EXTT6=
EXTT7=
EXTT8=
EXTT9=
EXTT10=
EXTT11=
EXTT12=
EXTT13=
EXTT14=
EXTT15=
EXTT16=
EXTT17=
EXTT18=
EXTT19=
PLAYORDER=
